<?xml version="1.0" encoding="utf-8"?>
<!-- Generator: https://github.com/anvaka/city-roads
Data © OpenStreetMap contributors, ODbL 1.0. https://osm.org/copyright
-->
<!DOCTYPE svg PUBLIC "-//W3C//DTD SVG 1.1//EN" "http://www.w3.org/Graphics/SVG/1.1/DTD/svg11.dtd">
<svg version="1.1" xmlns="http://www.w3.org/2000/svg" xmlns:xlink="http://www.w3.org/1999/xlink"
    viewBox="0 0 1920 959">
<style>
  path {
   vector-effect: non-scaling-stroke;
  }
</style>

<rect id="background" fill="#dddddd" x="0" y="0" width="1920" height="959"></rect>
<g id="lines" fill="none" stroke-width="1" stroke="#1a1a1a">
<path d="M1920 517.2282724460724 L1780.3658995581802 377.9774013360822,1780.3658995581802 377.9774013360822,1772.5597088851132 376.74377650695715,1772.5597088851132 376.74377650695715,1768.0403003078081 377.9774013360822,1768.0403003078081 377.9774013360822,1380.0697841121396 767.8772796981899,1380.0697841121396 767.8772796981899,1374.6282351513696 771.6941288963686,1374.6282351513696 771.6941288963686,1369.3937878501606 772.5305777790245,1369.3937878501606 772.5305777790245,1265.652162754017 875.0907694390927,1265.652162754017 875.0907694390927,1263.8635675966743 878.9782794605923,1263.8635675966743 878.9782794605923,1264.1945752839422 882.9427177096792,1264.1945752839422 882.9427177096792,1293.8626851730378 959"/>
<path d="M1369.3937878501606 772.5305777790245 L1540.0304764161674 959"/>
<path d="M1369.3937878501606 772.5305777790245 L1306.1509089202682 705.7351899052294,1306.1509089202682 705.7351899052294,1269.4264712524412 665.8921917092486,1269.4264712524412 665.8921917092486,1224.29705621722 613.446441881314,1224.29705621722 613.446441881314,1177.3032825359144 563.8346125930851,1177.3032825359144 563.8346125930851,1174.3172249174256 560.8320822394895,1174.3172249174256 560.8320822394895,1166.7762619187076 551.8371923784982,1166.7762619187076 551.8371923784982,1154.215607276472 535.9816579323333,1154.215607276472 535.9816579323333,1150.6813459078228 527.5092366393828,1150.6813459078228 527.5092366393828,1132.2445283240138 479.69681794063786,1132.2445283240138 479.69681794063786,1103.788627187342 406.209783541841,1103.788627187342 406.209783541841,1060.3214608765552 295.1183235452245,1060.3214608765552 295.1183235452245,1058.3029129927688 293.03244266339146,1058.3029129927688 293.03244266339146,1055.9105394031872 292.27303293583196,1055.9105394031872 292.27303293583196,1052.5935850249393 292.95235300179365,1052.5935850249393 292.95235300179365,1035.932827789941 300.03651651788095,1035.932827789941 300.03651651788095,1030.0111845696213 302.50054927836584,1030.0111845696213 302.50054927836584,1021.8159711220067 305.34894585801413,1021.8159711220067 305.34894585801413,1008.6515380475324 271.57151932545946,1008.6515380475324 271.57151932545946,995.3506641368181 237.76580627807454,995.3506641368181 237.76580627807454,952.2018597772577 126.26258336753752,952.2018597772577 126.26258336753752,916.3666170226822 34.746279053505134,916.3666170226822 34.746279053505134,914.2697543174446 28.886644310793592,914.2697543174446 28.886644310793592,903.1123175010797 0"/>
<path d="M952.2018597772577 126.26258336753752 L959.6922398318087 123.04280148729471,959.6922398318087 123.04280148729471,965.2021201382076 120.42524505416276,965.2021201382076 120.42524505416276,963.3603907039876 117.13801924836385,963.3603907039876 117.13801924836385,963.1532890444269 113.645910333187,963.1532890444269 113.645910333187,994.1614041647765 0"/>
<path d="M995.3506641368181 237.76580627807454 L983.1058201130987 250.22307648179356,983.1058201130987 250.22307648179356,972.8415867650401 240.9859209408448"/>
<path d="M983.1058201130987 250.22307648179356 L968.5115314458342 265.0705017249113,968.5115314458342 265.0705017249113,945.6461549147047 288.3352172889379,945.6461549147047 288.3352172889379,922.6519915454656 311.7282759810375,922.6519915454656 311.7282759810375,899.2055767214707 335.5797980684049,899.2055767214707 335.5797980684049,876.8682151338387 358.3068479956391,876.8682151338387 358.3068479956391,898.8695772962914 380.998955757495,898.8695772962914 380.998955757495,922.3640237317433 405.4503738142812,922.3640237317433 405.4503738142812,945.0726596924605 428.98231374782165,945.0726596924605 428.98231374782165,968.3826336802156 453.1362242250995,968.3826336802156 453.1362242250995,991.8618830469155 477.4634034716512,991.8618830469155 477.4634034716512,1013.8682369472795 499.5573901042344,1013.8682369472795 499.5573901042344,1016.1595555760364 501.82607952112704,1016.1595555760364 501.82607952112704,1039.2649792369407 524.7086498161729,1039.2649792369407 524.7086498161729,1063.0852197667311 500.7462002196674,1063.0852197667311 500.7462002196674,1078.396987563101 485.3781921761645,1078.396987563101 485.3781921761645,1091.712947615058 518.847794870861,1091.712947615058 518.847794870861,1097.7532832701554 534.3121989198048,1097.7532832701554 534.3121989198048,1086.8423425438218 523.7472410944729,1086.8423425438218 523.7472410944729,1062.7593147448833 547.9822395809307,1062.7593147448833 547.9822395809307,1039.1942074861104 571.69515774563,1039.1942074861104 571.69515774563,1063.0195506813213 594.8282578200644,1063.0195506813213 594.8282578200644,1039.287719376314 619.3299815022448,1039.287719376314 619.3299815022448,1015.5456827404658 595.4916043247102,1015.5456827404658 595.4916043247102,992.6298341926786 571.5765762383612,992.6298341926786 571.5765762383612,969.2264592422292 548.5077586554723,969.2264592422292 548.5077586554723,948.2129065486513 548.6455860855764,948.2129065486513 548.6455860855764,948.0865601157429 547.6137383955737,948.0865601157429 547.6137383955737,947.6343086609869 546.6812817537586,947.6343086609869 546.6812817537586,947.1493335910351 546.1877652656033,947.1493335910351 546.1877652656033,946.904294723349 545.9410624852802,946.904294723349 545.9410624852802,945.9770516744635 545.4796040472655,945.9770516744635 545.4796040472655,944.9488645922623 545.3386151831511,944.9488645922623 545.3386151831511,945.3834785730655 523.7440241967076,945.3834785730655 523.7440241967076,921.4974580303563 500.09572130608143,921.4974580303563 500.09572130608143,944.7291171966597 476.8257921491252,944.7291171966597 476.8257921491252,968.0921145337828 501.13078589384907,968.0921145337828 501.13078589384907,992.5313305645639 525.3942927501555,992.5313305645639 525.3942927501555,1015.7048637160791 548.3860157141934"/>
<path d="M992.5313305645639 525.3942927501555 L1000.6104029101109 517.3801129974544"/>
<path d="M944.7291171966597 476.8257921491252 L921.4165918761945 452.57226876864144,921.4165918761945 452.57226876864144,897.7100520432707 476.2136941537011,897.7100520432707 476.2136941537011,874.9255416663028 452.979261799669,874.9255416663028 452.979261799669,858.6209726631469 436.31695157954266,858.6209726631469 436.31695157954266,849.4733356220725 426.9252740183647,849.4733356220725 426.9252740183647,827.8105242175092 405.1490946994621,827.8105242175092 405.1490946994621,781.2865285374036 358.06657901084606,781.2865285374036 358.06657901084606,732.865450596018 310.57485174101936,732.865450596018 310.57485174101936,636.2656713207133 213.81278551984582,636.2656713207133 213.81278551984582,537.2608727197853 113.91502047035611,537.2608727197853 113.91502047035611,454.4696825645206 29.745223231522605"/>
<path d="M636.2656713207133 213.81278551984582 L731.0111863532653 119.67548601989813,731.0111863532653 119.67548601989813,827.0551078802788 216.46894472615799,827.0551078802788 216.46894472615799,871.5176267305619 261.27700276740615,871.5176267305619 261.27700276740615,878.8058968634631 268.6238426251323"/>
<path d="M871.5176267305619 261.27700276740615 L825.6530950922822 309.28032770937773,825.6530950922822 309.28032770937773,780.1674918252185 263.51984607466966"/>
<path d="M825.6530950922822 309.28032770937773 L868.6477102141407 354.1895516389599"/>
<path d="M827.0551078802788 216.46894472615799 L780.1674918252185 263.51984607466966"/>
<path d="M731.0111863532653 119.67548601989813 L850.8433484779702 -1.4210854715202004e-14"/>
<path d="M732.865450596018 310.57485174101936 L780.1674918252185 263.51984607466966"/>
<path d="M732.865450596018 310.57485174101936 L684.267443277557 359.7903925028522,684.267443277557 359.7903925028522,733.3151507180637 405.82841476542393,733.3151507180637 405.82841476542393,780.1649404925081 454.03029994875277,780.1649404925081 454.03029994875277,733.3276855265965 499.45810998355563,733.3276855265965 499.45810998355563,687.0816741843909 452.4024387521509,687.0816741843909 452.4024387521509,639.3274924279435 405.29973425687166,639.3274924279435 405.29973425687166,545.8148257319526 499.9964411854028,545.8148257319526 499.9964411854028,570.3272539187649 524.6861315318178,570.3272539187649 524.6861315318178,617.2149809013345 476.24896910160703,617.2149809013345 476.24896910160703,639.3173980246119 498.6217165646542,639.3173980246119 498.6217165646542,686.4778957521521 546.8703022293302,686.4778957521521 546.8703022293302,732.2869636358625 593.5785485021144,732.2869636358625 593.5785485021144,703.9470926737492 622.2621283512922"/>
<path d="M732.2869636358625 593.5785485021144 L777.7093382227179 639.8967181890141,777.7093382227179 639.8967181890141,750.9839062286003 664.6135857751678"/>
<path d="M777.7093382227179 639.8967181890141 L791.8969666414821 654.3621090906603,791.8969666414821 654.3621090906603,794.9411502747594 657.4801704450234,794.9411502747594 657.4801704450234,803.4318746067177 665.3506436096361,803.4318746067177 665.3506436096361,850.9183882836147 712.8014386285907,850.9183882836147 712.8014386285907,896.9622897041708 666.9176610674756,896.9622897041708 666.9176610674756,920.9820888229006 642.9795045954714,920.9820888229006 642.9795045954714,944.4334953848069 619.6087423327086,944.4334953848069 619.6087423327086,968.2689329833491 595.8537271782915,968.2689329833491 595.8537271782915,979.6649597071437 607.2553557412975,979.6649597071437 607.2553557412975,963.7090358652088 623.2747301184594,963.7090358652088 623.2747301184594,955.2838696911509 630.5747031035748,955.2838696911509 630.5747031035748,967.5110762409175 642.9218222907195,967.5110762409175 642.9218222907195,944.1733703758779 666.2639097923703,944.1733703758779 666.2639097923703,919.7517918190498 690.6862648417623,919.7517918190498 690.6862648417623,944.4285036468955 715.0191013912798,944.4285036468955 715.0191013912798,900.2060319263874 759.0098455451986,900.2060319263874 759.0098455451986,899.4986472006136 762.0799307518595,899.4986472006136 762.0799307518595,900.9134166521611 765.3808006412821,900.9134166521611 765.3808006412821,917.9026302417175 780.9558548805913,917.9026302417175 780.9558548805913,918.8473998370469 783.0773989566123,918.8473998370469 783.0773989566123,917.6676857773631 785.439267481181,917.6676857773631 785.439267481181,915.0706509334216 788.2690837030486"/>
<path d="M944.4285036468955 715.0191013912798 L987.1453562858721 757.1414935087854,987.1453562858721 757.1414935087854,988.9440458465465 758.7470582760503,988.9440458465465 758.7470582760503,991.2757420886298 759.2149505095949,991.2757420886298 759.2149505095949,994.0748868542207 757.0389410265873,994.0748868542207 757.0389410265873,1135.9430733336967 615.2570006854661,1135.9430733336967 615.2570006854661,1139.2928622546494 610.7867329947094,1139.2928622546494 610.7867329947094,1140.2377427774877 606.7234028712259,1140.2377427774877 606.7234028712259,1138.88864241135 582.5999419952067,1138.88864241135 582.5999419952067,1138.7522015751101 571.8810167871909,1138.7522015751101 571.8810167871909,1163.9417312777016 561.6556080673307,1163.9417312777016 561.6556080673307,1170.8763645114705 560.1142703278566"/>
<path d="M1138.7522015751101 571.8810167871909 L1134.9173266566963 573.1948422054227,1134.9173266566963 573.1948422054227,1114.9244179746984 579.5557028981748,1114.9244179746984 579.5557028981748,1106.2415671969127 582.7986686278274,1106.2415671969127 582.7986686278274,1102.088441254782 582.939657491942,1102.088441254782 582.939657491942,1098.0892826953348 581.9366509543152,1098.0892826953348 581.9366509543152,1085.2533059754185 570.2563724883541,1085.2533059754185 570.2563724883541,1081.8655798463406 573.9991775741831,1081.8655798463406 573.9991775741831,1102.5835107280654 594.2738975931466"/>
<path d="M967.5110762409175 642.9218222907195 L991.4323717315328 619.0095119283445,991.4323717315328 619.0095119283445,1016.1822957154096 643.1877709938784,1016.1822957154096 643.1877709938784,992.2357087527109 667.9175061710919,992.2357087527109 667.9175061710919,971.8057456847085 689.0102056424398"/>
<path d="M991.4323717315328 619.0095119283445 L999.5063414116592 610.9341001905992"/>
<path d="M967.5110762409175 642.9218222907195 L992.2357087527109 667.9175061710919"/>
<path d="M979.6649597071437 607.2553557412975 L991.4323717315328 619.0095119283445"/>
<path d="M968.2689329833491 595.8537271782915 L944.9514159249726 572.5763658782229,944.9514159249726 572.5763658782229,944.6810855852029 551.6673623620076,944.6810855852029 551.6673623620076,945.7194779982449 551.6128969550209,945.7194779982449 551.6128969550209,946.6844364002372 551.2315281786042,946.6844364002372 551.2315281786042,947.4726872801727 550.5554250104071,947.4726872801727 550.5554250104071,948.00070222367 549.6614047505087"/>
<path d="M944.6810855852029 551.6673623620076 L943.6706469044641 551.3757339404837,943.6706469044641 551.3757339404837,942.8091838684974 550.770125204344,942.8091838684974 550.770125204344,942.1927597002169 549.9145413263619,942.1927597002169 549.9145413263619,941.8921461504526 548.9083178909701,941.8921461504526 548.9083178909701,920.70931807793 548.3571745618174,920.70931807793 548.3571745618174,897.1341164158257 571.8745829916608,897.1341164158257 571.8745829916608,873.5538120883011 595.3987025358069,873.5538120883011 595.3987025358069,849.7865949078787 619.1088475127777,849.7865949078787 619.1088475127777,865.3837791852609 634.6796865067397,865.3837791852609 634.6796865067397,873.1116550368764 643.4986453382378,873.1116550368764 643.4986453382378,897.5079421216212 619.4356954184533,897.5079421216212 619.4356954184533,921.1488128691351 596.1132975496747,921.1488128691351 596.1132975496747,934.1010416186284 583.3369998296746"/>
<path d="M921.1488128691351 596.1132975496747 L933.3962082255649 608.476279370626,933.3962082255649 608.476279370626,909.4800154003699 631.4495329043924"/>
<path d="M921.1488128691351 596.1132975496747 L910.1317145165563 584.9873238468767,910.1317145165563 584.9873238468767,886.0058686990903 607.893022527578"/>
<path d="M897.5079421216212 619.4356954184533 L909.4800154003699 631.4495329043924"/>
<path d="M897.5079421216212 619.4356954184533 L886.0058686990903 607.893022527578,886.0058686990903 607.893022527578,873.5538120883011 595.3987025358069,873.5538120883011 595.3987025358069,865.6616525956518 587.4772027169907"/>
<path d="M897.1341164158257 571.8745829916608 L910.1317145165563 584.9873238468767"/>
<path d="M897.1341164158257 571.8745829916608 L885.808750515352 560.4315230039915"/>
<path d="M920.70931807793 548.3571745618174 L897.2199743078985 523.5806279757473"/>
<path d="M941.8921461504526 548.9083178909701 L941.9350750964891 547.8540628441215,941.9350750964891 547.8540628441215,942.3215465383263 546.8767360248602,942.3215465383263 546.8767360248602,943.0061911247267 546.0756175538647,943.0061911247267 546.0756175538647,943.9156857721501 545.5436646837928"/>
<path d="M944.9514159249726 572.5763658782229 L920.70931807793 548.3571745618174"/>
<path d="M944.9514159249726 572.5763658782229 L934.1010416186284 583.3369998296746"/>
<path d="M944.4334953848069 619.6087423327086 L955.2838696911509 630.5747031035748"/>
<path d="M944.4334953848069 619.6087423327086 L933.3962082255649 608.476279370626"/>
<path d="M920.9820888229006 642.9795045954714 L944.1733703758779 666.2639097923703"/>
<path d="M920.9820888229006 642.9795045954714 L909.4800154003699 631.4495329043924"/>
<path d="M896.9622897041708 666.9176610674756 L919.7517918190498 690.6862648417623"/>
<path d="M896.9622897041708 666.9176610674756 L873.1116550368764 643.4986453382378"/>
<path d="M850.9183882836147 712.8014386285907 L801.6509334475053 761.9005055058286"/>
<path d="M803.4318746067177 665.3506436096361 L849.7865949078787 619.1088475127777"/>
<path d="M686.4778957521521 546.8703022293302 L643.7635944458857 589.4511577421034,643.7635944458857 589.4511577421034,640.0778060997536 590.8707525402984,640.0778060997536 590.8707525402984,637.111937287928 590.1112873489843,637.111937287928 590.1112873489843,632.3220874433445 585.9229973864566,632.3220874433445 585.9229973864566,629.5381397465054 583.6189775579035,629.5381397465054 583.6189775579035,592.422127971421 546.8799529226252,592.422127971421 546.8799529226252,584.4492132521193 538.9073155220964"/>
<path d="M629.5381397465054 583.6189775579035 L624.4148418094525 582.8659461621195,624.4148418094525 582.8659461621195,449.44494371933666 646.4532550078859,449.44494371933666 646.4532550078859,441.7195637366767 650.0263410047336,441.7195637366767 650.0263410047336,434.5146556268928 655.6663947431063,434.5146556268928 655.6663947431063,129.20794126630352 959"/>
<path d="M639.3173980246119 498.6217165646542 L592.422127971421 546.8799529226252"/>
<path d="M570.3272539187649 524.6861315318178 L584.4492132521193 538.9073155220964"/>
<path d="M687.0816741843909 452.4024387521509 L639.3173980246119 498.6217165646542"/>
<path d="M733.3276855265965 499.45810998355563 L686.4778957521521 546.8703022293302"/>
<path d="M733.3151507180637 405.82841476542393 L687.0816741843909 452.4024387521509"/>
<path d="M684.267443277557 359.7903925028522 L639.3274924279435 405.29973425687166"/>
<path d="M781.2865285374036 358.06657901084606 L825.6530950922822 309.28032770937773"/>
<path d="M781.2865285374036 358.06657901084606 L733.3151507180637 405.82841476542393"/>
<path d="M827.8105242175092 405.1490946994621 L780.1649404925081 454.03029994875277"/>
<path d="M874.9255416663028 452.979261799669 L890.0933255558115 437.76843803661484,890.0933255558115 437.76843803661484,890.7526786701285 427.6494087980181,890.7526786701285 427.6494087980181,889.1258158211089 418.97864911872864,889.1258158211089 418.97864911872864,883.8154941036493 400.22424607625754,883.8154941036493 400.22424607625754,876.5827986528262 364.08406359906104"/>
<path d="M883.8154941036493 400.22424607625754 L886.3595055982228 392.3674724590234,886.3595055982228 392.3674724590234,889.0323039309055 388.7274971741655,889.0323039309055 388.7274971741655,893.2587529565766 386.01997853112243"/>
<path d="M889.1258158211089 418.97864911872864 L898.809010876302 429.0528636436335,898.809010876302 429.0528636436335,890.0933255558115 437.76843803661484"/>
<path d="M921.4165918761945 452.57226876864144 L898.809010876302 429.0528636436335"/>
<path d="M921.4974580303563 500.09572130608143 L897.7100520432707 476.2136941537011"/>
<path d="M921.4974580303563 500.09572130608143 L897.2199743078985 523.5806279757473"/>
<path d="M945.3834785730655 523.7440241967076 L968.0921145337828 501.13078589384907"/>
<path d="M945.3834785730655 523.7440241967076 L920.70931807793 548.3571745618174"/>
<path d="M944.9488645922623 545.3386151831511 L943.9156857721501 545.5436646837928"/>
<path d="M948.2129065486513 548.6455860855764 L948.00070222367 549.6614047505087"/>
<path d="M969.2264592422292 548.5077586554723 L945.3834785730655 523.7440241967076"/>
<path d="M969.2264592422292 548.5077586554723 L944.9514159249726 572.5763658782229"/>
<path d="M969.2264592422292 548.5077586554723 L992.5313305645639 525.3942927501555"/>
<path d="M992.6298341926786 571.5765762383612 L1015.7048637160791 548.3860157141934"/>
<path d="M992.6298341926786 571.5765762383612 L968.2689329833491 595.8537271782915"/>
<path d="M1015.5456827404658 595.4916043247102 L999.5063414116592 610.9341001905992"/>
<path d="M1039.287719376314 619.3299815022448 L1062.110056033898 641.6303487655794,1062.110056033898 641.6303487655794,1063.747124213758 642.008500644231,1063.747124213758 642.008500644231,1065.4902390923544 641.4990105947597,1065.4902390923544 641.4990105947597,1086.483602979269 620.9738717239169,1086.483602979269 620.9738717239169,1087.2161682496173 619.3556057568557,1087.2161682496173 619.3556057568557,1086.4406740332327 617.9327940608957"/>
<path d="M1039.287719376314 619.3299815022448 L1016.1822957154096 643.1877709938784"/>
<path d="M1063.0195506813213 594.8282578200644 L1081.8655798463406 573.9991775741831"/>
<path d="M1063.0195506813213 594.8282578200644 L1086.4406740332327 617.9327940608957"/>
<path d="M1039.1942074861104 571.69515774563 L1015.7048637160791 548.3860157141934"/>
<path d="M1039.1942074861104 571.69515774563 L1015.5456827404658 595.4916043247102"/>
<path d="M1062.7593147448833 547.9822395809307 L1085.2533059754185 570.2563724883541"/>
<path d="M1097.7532832701554 534.3121989198048 L1114.9244179746984 579.5557028981748"/>
<path d="M1091.712947615058 518.847794870861 L1086.8423425438218 523.7472410944729"/>
<path d="M1078.396987563101 485.3781921761645 L1065.6518604731687 452.9119288016225,1065.6518604731687 452.9119288016225,1052.2524829343397 417.3252745950253,1052.2524829343397 417.3252745950253,1039.757608305023 429.7705646277573,1039.757608305023 429.7705646277573,1015.1162823525924 454.30906077921685,1015.1162823525924 454.30906077921685,1039.7803484443964 478.187649178814"/>
<path d="M1015.1162823525924 454.30906077921685 L991.437474396953 430.02370120361024,991.437474396953 430.02370120361024,1015.7983756062827 405.6169869330069,1015.7983756062827 405.6169869330069,1038.5803346505404 382.78688534978323,1038.5803346505404 382.78688534978323,1047.1140988560442 403.68163468107423,1047.1140988560442 403.68163468107423,1050.971713913831 402.28771960124476,1050.971713913831 402.28771960124476,1052.8386238926255 400.88748165339433,1052.8386238926255 400.88748165339433,1054.8596121816126 399.176424824939,1054.8596121816126 399.176424824939,1059.523115593288 395.289746759758,1059.523115593288 395.289746759758,1062.3197090261688 393.73565235673306,1062.3197090261688 393.73565235673306,1065.573545651717 393.713244999887,1065.573545651717 393.713244999887,1070.6513633100233 394.2612268950295,1070.6513633100233 394.2612268950295,1082.06258710257 401.97690072063966,1082.06258710257 401.97690072063966,1090.4978476799592 406.4212113742581,1090.4978476799592 406.4212113742581,1095.4746103774405 407.5106304415035,1095.4746103774405 407.5106304415035,1098.1171255001286 407.66448689667806"/>
<path d="M1038.5803346505404 382.78688534978323 L1025.2668150037841 348.9443443693645,1025.2668150037841 348.9443443693645,1012.0620043159835 315.36181747036557,1012.0620043159835 315.36181747036557,1011.8876262716186 312.7888538959072,1011.8876262716186 312.7888538959072,1012.7389949042536 310.41777838807997,1012.7389949042536 310.41777838807997,1015.4295416383984 308.0884116236889"/>
<path d="M1012.7389949042536 310.41777838807997 L991.5207809563157 288.65890376060304,991.5207809563157 288.65890376060304,968.5115314458342 311.58096424890215,968.5115314458342 311.58096424890215,945.3834785730655 334.63780166080403,945.3834785730655 334.63780166080403,921.4974580303563 358.44151399173285,921.4974580303563 358.44151399173285,945.1005024972542 382.61383843552767,945.1005024972542 382.61383843552767,969.1052154747412 358.5504448057065,969.1052154747412 358.5504448057065,992.063992968565 335.518898865888,992.063992968565 335.518898865888,1015.1744083673807 359.01179231621205,1015.1744083673807 359.01179231621205,992.253457154173 381.88648675810896,992.253457154173 381.88648675810896,967.9987135710886 406.0847682390422"/>
<path d="M969.1052154747412 358.5504448057065 L992.253457154173 381.88648675810896"/>
<path d="M945.1005024972542 382.61383843552767 L967.9987135710886 406.0847682390422"/>
<path d="M945.3834785730655 334.63780166080403 L969.1052154747412 358.5504448057065"/>
<path d="M968.5115314458342 311.58096424890215 L992.063992968565 335.518898865888,992.063992968565 335.518898865888,1012.0620043159835 315.36181747036557"/>
<path d="M1025.2668150037841 348.9443443693645 L1015.1744083673807 359.01179231621205,1015.1744083673807 359.01179231621205,1038.5803346505404 382.78688534978323"/>
<path d="M1015.7983756062827 405.6169869330069 L992.253457154173 381.88648675810896"/>
<path d="M991.437474396953 430.02370120361024 L967.9987135710886 406.0847682390422"/>
<path d="M1039.757608305023 429.7705646277573 L1015.7983756062827 405.6169869330069"/>
<path d="M1052.2524829343397 417.3252745950253 L1047.1140988560442 403.68163468107423"/>
<path d="M1065.6518604731687 452.9119288016225 L1039.7803484443964 478.187649178814"/>
<path d="M1063.0852197667311 500.7462002196674 L1086.8423425438218 523.7472410944729"/>
<path d="M1063.0852197667311 500.7462002196674 L1039.7803484443964 478.187649178814"/>
<path d="M1039.2649792369407 524.7086498161729 L1015.7048637160791 548.3860157141934"/>
<path d="M1039.2649792369407 524.7086498161729 L1062.7593147448833 547.9822395809307"/>
<path d="M1016.1595555760364 501.82607952112704 L1000.6104029101109 517.3801129974544"/>
<path d="M1016.1595555760364 501.82607952112704 L1039.7803484443964 478.187649178814"/>
<path d="M991.8618830469155 477.4634034716512 L1015.1162823525924 454.30906077921685"/>
<path d="M991.8618830469155 477.4634034716512 L968.0921145337828 501.13078589384907"/>
<path d="M968.3826336802156 453.1362242250995 L991.437474396953 430.02370120361024"/>
<path d="M968.3826336802156 453.1362242250995 L944.7291171966597 476.8257921491252"/>
<path d="M945.0726596924605 428.98231374782165 L921.4165918761945 452.57226876864144"/>
<path d="M945.0726596924605 428.98231374782165 L967.9987135710886 406.0847682390422"/>
<path d="M922.3640237317433 405.4503738142812 L945.1005024972542 382.61383843552767"/>
<path d="M922.3640237317433 405.4503738142812 L898.809010876302 429.0528636436335"/>
<path d="M898.8695772962914 380.998955757495 L921.4974580303563 358.44151399173285"/>
<path d="M898.8695772962914 380.998955757495 L893.2587529565766 386.01997853112243"/>
<path d="M876.8682151338387 358.3068479956391 L876.5827986528262 364.08406359906104"/>
<path d="M899.2055767214707 335.5797980684049 L921.4974580303563 358.44151399173285"/>
<path d="M922.6519915454656 311.7282759810375 L945.3834785730655 334.63780166080403"/>
<path d="M922.6519915454656 311.7282759810375 L884.5835561769215 273.34658132668727"/>
<path d="M945.6461549147047 288.3352172889379 L968.5115314458342 311.58096424890215"/>
<path d="M968.5115314458342 265.0705017249113 L991.5207809563157 288.65890376060304"/>
<path d="M968.5115314458342 265.0705017249113 L952.4645361188968 248.60497690599593"/>
<path d="M1008.6515380475324 271.57151932545946 L991.5207809563157 288.65890376060304"/>
<path d="M1021.8159711220067 305.34894585801413 L1015.4295416383984 308.0884116236889"/>
<path d="M1035.932827789941 300.03651651788095 L965.2021201382076 120.42524505416276"/>
<path d="M1103.788627187342 406.209783541841 L1098.1171255001286 407.66448689667806"/>
<path d="M1132.2445283240138 479.69681794063786 L1139.406562951516 474.2879925950636,1139.406562951516 474.2879925950636,1611.0931261330475 0"/>
<path d="M1150.6813459078228 527.5092366393828 L1161.6428695783231 523.1416878220879,1161.6428695783231 523.1416878220879,1164.8436828545036 523.2217774836856,1164.8436828545036 523.2217774836856,1177.3588572179924 534.844096326122,1177.3588572179924 534.844096326122,1178.253154796664 538.420232829471,1178.253154796664 538.420232829471,1177.3588572179924 541.4612550287377"/>
<path d="M1154.215607276472 535.9816579323333 L1163.9417312777016 561.6556080673307"/>
<path d="M1166.7762619187076 551.8371923784982 L1177.3588572179924 541.4612550287377"/>
<path d="M1174.3172249174256 560.8320822394895 L1170.8763645114705 560.1142703278566"/>
<path d="M1177.3032825359144 563.8346125930851 L1198.7766297548699 547.2644831330525"/>
</g>
<text text-anchor="end" x="1879" y="888" fill="rgb(22, 22, 22)" font-family="Roboto, sans-serif" font-size="24">De la Garma</text>
<text text-anchor="end" x="1880" y="927" fill="rgb(22, 22, 22)" font-family="Roboto, sans-serif" font-size="12">data © OpenStreetMap</text>
</svg>