<?xml version="1.0" encoding="utf-8"?>
<!-- Generator: https://github.com/anvaka/city-roads
Data © OpenStreetMap contributors, ODbL 1.0. https://osm.org/copyright
-->
<!DOCTYPE svg PUBLIC "-//W3C//DTD SVG 1.1//EN" "http://www.w3.org/Graphics/SVG/1.1/DTD/svg11.dtd">
<svg version="1.1" xmlns="http://www.w3.org/2000/svg" xmlns:xlink="http://www.w3.org/1999/xlink"
    viewBox="0 0 1366 687">
<style>
  path {
   vector-effect: non-scaling-stroke;
  }
</style>

<rect id="background" fill="#d9d9d9" x="0" y="0" width="1366" height="687"></rect>
<g id="lines" fill="none" stroke-width="1" stroke="#ffffff">
<path d="M1366 413.50935370482455 L1137.2462116999147 643.4007256257054,1137.2462116999147 643.4007256257054,1132.3467121375966 646.8373667568851,1132.3467121375966 646.8373667568851,1127.6336842026938 647.5904943983011,1127.6336842026938 647.5904943983011,1087.7702041410857 687"/>
<path d="M1127.6336842026938 647.5904943983011 L1163.6970100488388 687"/>
<path d="M1127.6336842026938 647.5904943983011 L1070.6906226092724 587.4488001836789,1070.6906226092724 587.4488001836789,1037.6244189277324 551.5746853626988,1037.6244189277324 551.5746853626988,996.9904834790566 504.35321769238914,996.9904834790566 504.35321769238914,954.6779038729272 459.6833750362129,954.6779038729272 459.6833750362129,951.9892966215149 456.97993594941164,951.9892966215149 456.97993594941164,945.1995120991227 448.881054683297,945.1995120991227 448.881054683297,933.8900628291206 434.6049387024695,933.8900628291206 434.6049387024695,930.7078600861786 426.9764813062667,930.7078600861786 426.9764813062667,914.1075905060209 383.92680442626295,914.1075905060209 383.92680442626295,888.4862690459706 317.76003914147367,888.4862690459706 317.76003914147367,849.3490006229056 217.73474054456875,849.3490006229056 217.73474054456875,847.5315264911044 215.8566406613799,847.5315264911044 215.8566406613799,845.3774645797699 215.17287806829813,845.3774645797699 215.17287806829813,842.3909222107468 215.78452897686262,842.3909222107468 215.78452897686262,827.3897941552507 222.1630172155401,827.3897941552507 222.1630172155401,822.0580239965466 224.3816001077585,822.0580239965466 224.3816001077585,814.6791609211314 226.94625915905198,814.6791609211314 226.94625915905198,802.826077442227 196.53350578578,802.826077442227 196.53350578578,790.8501444176767 166.0952836042644,790.8501444176767 166.0952836042644,751.9995249344516 65.69923906147598,751.9995249344516 65.69923906147598,726.2735278216302 0"/>
<path d="M751.9995249344516 65.69923906147598 L758.7437652350434 62.80018953959558,758.7437652350434 62.80018953959558,763.7047894478637 60.443375939105934,763.7047894478637 60.443375939105934,762.0465203370052 57.48360078815824,762.0465203370052 57.48360078815824,761.86004870959 54.33935156338338,761.86004870959 54.33935156338338,776.686458774876 0"/>
<path d="M790.8501444176767 166.0952836042644 L779.8250469008887 177.31164687707835,779.8250469008887 177.31164687707835,770.5832653495512 168.99463275918308"/>
<path d="M779.8250469008887 177.31164687707835 L766.6845401346886 190.68007450763886,766.6845401346886 190.68007450763886,746.0968539603729 211.6273203277469,746.0968539603729 211.6273203277469,725.3932098002891 232.69012462290559,725.3932098002891 232.69012462290559,704.2823643413454 254.16572336696973,704.2823643413454 254.16572336696973,684.1700959209107 274.62886207509007,684.1700959209107 274.62886207509007,703.9798348504829 295.0605393142039,703.9798348504829 295.0605393142039,725.1339273446011 317.0762765483916,725.1339273446011 317.0762765483916,745.5804863579432 338.2641276981425,745.5804863579432 338.2641276981425,766.5684822712412 360.01199299621504,766.5684822712412 360.01199299621504,787.7088915232835 381.9158672294897,787.7088915232835 381.9158672294897,807.523124948428 401.80900402134995,807.523124948428 401.80900402134995,809.5861982938411 403.85170232016816,809.5861982938411 403.85170232016816,830.39001976635 424.4548695347889,830.39001976635 424.4548695347889,851.8374530048269 402.8793931113379,851.8374530048269 402.8793931113379,865.6239686013004 389.04223953141525,865.6239686013004 389.04223953141525,877.6134849902472 419.17783234438883,877.6134849902472 419.17783234438883,883.0521242658951 433.10177962769853,883.0521242658951 433.10177962769853,873.2280558437329 423.5892296875437,873.2280558437329 423.5892296875437,851.5440123827885 445.41010556924795,851.5440123827885 445.41010556924795,830.326297806901 466.7609071529183,830.326297806901 466.7609071529183,851.77832541863 487.5896481064341,851.77832541863 487.5896481064341,830.4104946906241 509.65067986822373,830.4104946906241 509.65067986822373,809.0334752161147 488.18691662916694,809.0334752161147 488.18691662916694,788.4003446976781 466.65413791365376,788.4003446976781 466.65413791365376,767.3282517783364 445.8832760753426,767.3282517783364 445.8832760753426,748.4079235837035 446.00737409198064,748.4079235837035 446.00737409198064,748.2941629068819 445.0783119183249,748.2941629068819 445.0783119183249,747.8869616080219 444.23874014539973,747.8869616080219 444.23874014539973,747.4502963937432 443.7943843498079,747.4502963937432 443.7943843498079,747.2296665999776 443.5722563908518,747.2296665999776 443.5722563908518,746.3947890779837 443.15676524460275,746.3947890779837 443.15676524460275,745.4690228677476 443.0298207141023,745.4690228677476 443.0298207141023,745.860343615585 423.58633323484133,745.860343615585 423.58633323484133,724.3536829132316 402.29371039941384,724.3536829132316 402.29371039941384,745.2711651848824 381.3417703283745,745.2711651848824 381.3417703283745,766.3069026289272 403.22566902577165,766.3069026289272 403.22566902577165,788.3116533183825 425.0722134710784,788.3116533183825 425.0722134710784,809.1767996860347 445.7736603222157"/>
<path d="M788.3116533183825 425.0722134710784 L795.5859444634798 417.8563507684223"/>
<path d="M745.2711651848824 381.3417703283745 L724.2808720849586 359.5042148742126,724.2808720849586 359.5042148742126,702.935813467853 380.7906452935182,702.935813467853 380.7906452935182,682.4209381218102 359.87066607988265,682.4209381218102 359.87066607988265,667.7405172948249 344.8681397368753,667.7405172948249 344.8681397368753,659.5041044641948 336.4119960115943,659.5041044641948 336.4119960115943,639.9991922121111 316.8050087711771,639.9991922121111 316.8050087711771,598.1095945781848 274.41252702153844,598.1095945781848 274.41252702153844,554.5118888713858 231.6515965126419,554.5118888713858 231.6515965126419,467.5347101872483 144.52829678356144,467.5347101872483 144.52829678356144,378.392083536326 54.581654813575675,378.392083536326 54.581654813575675,324.7044151457588 0"/>
<path d="M467.5347101872483 144.52829678356144 L552.8423335827567 59.768302704130654,552.8423335827567 59.768302704130654,639.3190252154872 146.9198678164778,639.3190252154872 146.9198678164778,679.3524960556897 187.26445762797,679.3524960556897 187.26445762797,685.9147592244389 193.87945621143518"/>
<path d="M679.3524960556897 187.26445762797 L638.0566712257179 230.48602399419826,638.0566712257179 230.48602399419826,597.1020285485312 189.2838844274911"/>
<path d="M638.0566712257179 230.48602399419826 L676.7684607345952 270.92170224929134"/>
<path d="M639.3190252154872 146.9198678164778 L597.1020285485312 189.2838844274911"/>
<path d="M552.8423335827567 59.768302704130654 L612.6888834298071 0"/>
<path d="M554.5118888713858 231.6515965126419 L597.1020285485312 189.2838844274911"/>
<path d="M554.5118888713858 231.6515965126419 L510.75487826596526 275.96462615920876,510.75487826596526 275.96462615920876,554.9167929836199 317.4166596797417,554.9167929836199 317.4166596797417,597.0997313619051 360.8170070920724,597.0997313619051 360.8170070920724,554.9280791613905 401.71961349829866,554.9280791613905 401.71961349829866,513.2887749920076 359.3513021470715,513.2887749920076 359.3513021470715,470.2915338936819 316.9406426597844,470.2915338936819 316.9406426597844,386.093951026878 402.2043198763626,386.093951026878 402.2043198763626,408.1646209847287 424.4345943658732,408.1646209847287 424.4345943658732,450.38171752936415 380.82240639556323,450.38171752936415 380.82240639556323,470.28244502485774 400.96653579572245,470.28244502485774 400.96653579572245,512.7451407831054 444.4089317110748,512.7451407831054 444.4089317110748,553.991026773384 486.4644261704626,553.991026773384 486.4644261704626,528.4741773659722 512.2907465674541"/>
<path d="M553.991026773384 486.4644261704626 L594.8887391733202 528.1687007702866,594.8887391733202 528.1687007702866,570.8255095117036 550.423445291247"/>
<path d="M594.8887391733202 528.1687007702866 L607.6630943668883 541.1931496730392,607.6630943668883 541.1931496730392,610.4040375222993 544.000611362922,610.4040375222993 544.000611362922,618.0489747356011 551.0870825319325,618.0489747356011 551.0870825319325,660.8052109935663 593.8111581771353,660.8052109935663 593.8111581771353,702.2625380311068 552.4980045697898,702.2625380311068 552.4980045697898,723.8896512148006 530.9444013581244,723.8896512148006 530.9444013581244,745.0049911693168 509.9016724765226,745.0049911693168 509.9016724765226,766.4661076498699 488.512967313525,766.4661076498699 488.512967313525,776.7269411639902 498.7788446504545,776.7269411639902 498.7788446504545,762.3604358833178 513.2024799637362,762.3604358833178 513.2024799637362,754.7745263785338 519.7752802276607,754.7745263785338 519.7752802276607,765.7837433442994 530.8924649648433,765.7837433442994 530.8924649648433,744.7707780111547 551.9093754663238,744.7707780111547 551.9093754663238,722.781907872722 573.8989447485122,722.781907872722 573.8989447485122,745.0004966737442 595.8079127434356,745.0004966737442 595.8079127434356,705.1831611317348 635.4166038132063,705.1831611317348 635.4166038132063,704.5462411702853 638.1808684067543,704.5462411702853 638.1808684067543,705.8200810931842 641.1529285122664,705.8200810931842 641.1529285122664,721.1169469573445 655.1765037807644,721.1169469573445 655.1765037807644,721.9676051526815 657.0867143378762,721.9676051526815 657.0867143378762,720.9054060324033 659.2133098873794,720.9054060324033 659.2133098873794,718.5670698026003 661.7612394273755"/>
<path d="M745.0004966737442 595.8079127434356 L783.4621924734372 633.7343640592949,783.4621924734372 633.7343640592949,785.0817090446938 635.1799935907391,785.0817090446938 635.1799935907391,787.1811378654036 635.6012776423925,787.1811378654036 635.6012776423925,789.7014512270493 633.6420271447018,789.7014512270493 633.6420271447018,917.4377120921345 505.98342117534,917.4377120921345 505.98342117534,920.4538182542562 501.9584505737325,920.4538182542562 501.9584505737325,921.3045763272726 498.2998812389555,921.3045763272726 498.2998812389555,920.0898639905708 476.5794323638747,920.0898639905708 476.5794323638747,919.9670144449252 466.9282522047309,919.9670144449252 466.9282522047309,942.6473377577524 457.72142784117887,942.6473377577524 457.72142784117887,948.8911908846168 456.33362748609966"/>
<path d="M919.9670144449252 466.9282522047309 L916.5141431908451 468.11120343938774,916.5141431908451 468.11120343938774,898.5127895242498 473.83843926962373,898.5127895242498 473.83843926962373,890.6948641702503 476.758363226496,890.6948641702503 476.758363226496,886.9554438540096 476.8853077569966,886.9554438540096 476.8853077569966,883.3546537567577 475.9822137799814,883.3546537567577 475.9822137799814,871.7973080865174 465.46544371243226,871.7973080865174 465.46544371243226,868.7470437580455 468.8354164926212,868.7470437580455 468.8354164926212,887.4011979371126 487.09050940369866"/>
<path d="M765.7837433442994 530.8924649648433 L787.3221651486976 509.3621332524752,787.3221651486976 509.3621332524752,809.6066732181155 531.1319217011733,809.6066732181155 531.1319217011733,788.0454793028168 553.3982520329423,788.0454793028168 553.3982520329423,769.6506075794376 572.3898429518177"/>
<path d="M787.3221651486976 509.3621332524752 L794.5918619205432 502.09113807079774"/>
<path d="M765.7837433442994 530.8924649648433 L788.0454793028168 553.3982520329423"/>
<path d="M776.7269411639902 498.7788446504545 L787.3221651486976 509.3621332524752"/>
<path d="M766.4661076498699 488.512967313525 L745.4713200543736 467.55433543796664,745.4713200543736 467.55433543796664,745.227918149708 448.72814195615564,745.227918149708 448.72814195615564,746.1628731064475 448.67910201557675,746.1628731064475 448.67910201557675,747.031709039433 448.33572255384513,747.031709039433 448.33572255384513,747.7414398291555 447.72696809798265,747.7414398291555 447.72696809798265,748.2168575830365 446.9220039409651"/>
<path d="M745.227918149708 448.72814195615564 L744.318132368174 448.46556353704796,744.318132368174 448.46556353704796,743.5424823100561 447.9202813464358,743.5424823100561 447.9202813464358,742.9874620457038 447.1499248053257,742.9874620457038 447.1499248053257,742.7167935345657 446.2439343756083,742.7167935345657 446.2439343756083,723.6440520011885 445.74769212557504,723.6440520011885 445.74769212557504,702.4172485564768 466.92245929932625,702.4172485564768 466.92245929932625,681.1858507385133 488.1032690726804,681.1858507385133 488.1032690726804,659.7861590307832 509.45157371436613,659.7861590307832 509.45157371436613,673.8296598963187 523.4713536310475,673.8296598963187 523.4713536310475,680.7877383084777 531.4118288976547,680.7877383084777 531.4118288976547,702.7538363360102 509.74586329667926,702.7538363360102 509.74586329667926,724.039767366919 488.74668108329,724.039767366919 488.74668108329,735.7017848451565 477.2430696045598"/>
<path d="M724.039767366919 488.74668108329 L735.0671620703329 499.8781483286249,735.0671620703329 499.8781483286249,713.5333346391865 520.5629655461444"/>
<path d="M724.039767366919 488.74668108329 L714.1201160055834 478.7289997796365,714.1201160055834 478.7289997796365,692.3975197603959 499.35299149040935"/>
<path d="M702.7538363360102 509.74586329667926 L713.5333346391865 520.5629655461444"/>
<path d="M702.7538363360102 509.74586329667926 L692.3975197603959 499.35299149040935,692.3975197603959 499.35299149040935,681.1858507385133 488.1032690726804,681.1858507385133 488.1032690726804,674.0798534831828 480.970854171152"/>
<path d="M702.4172485564768 466.92245929932625 L714.1201160055834 478.7289997796365"/>
<path d="M702.4172485564768 466.92245929932625 L692.2200371241256 456.61927764914583"/>
<path d="M723.6440520011885 445.74769212557504 L702.4945538803222 423.43921341310465"/>
<path d="M742.7167935345657 446.2439343756083 L742.7554461964884 445.29469691071637,742.7554461964884 445.29469691071637,743.1034200314721 444.4147246164792,743.1034200314721 444.4147246164792,743.7198650686471 443.69340801594797,743.7198650686471 443.69340801594797,744.5387621619392 443.21444460444866"/>
<path d="M745.4713200543736 467.55433543796664 L723.6440520011885 445.74769212557504"/>
<path d="M745.4713200543736 467.55433543796664 L735.7017848451565 477.2430696045598"/>
<path d="M745.0049911693168 509.9016724765226 L754.7745263785338 519.7752802276607"/>
<path d="M745.0049911693168 509.9016724765226 L735.0671620703329 499.8781483286249"/>
<path d="M723.8896512148006 530.9444013581244 L744.7707780111547 551.9093754663238"/>
<path d="M723.8896512148006 530.9444013581244 L713.5333346391865 520.5629655461444"/>
<path d="M702.2625380311068 552.4980045697898 L722.781907872722 573.8989447485122"/>
<path d="M702.2625380311068 552.4980045697898 L680.7877383084777 531.4118288976547"/>
<path d="M660.8052109935663 593.8111581771353 L616.4454385930464 638.0193162603462"/>
<path d="M618.0489747356011 551.0870825319325 L659.7861590307832 509.45157371436613"/>
<path d="M512.7451407831054 444.4089317110748 L474.28574217003825 482.74817747583955,474.28574217003825 482.74817747583955,470.967106517054 484.0263620777918,470.967106517054 484.0263620777918,468.29667700328986 483.3425495458703,468.29667700328986 483.3425495458703,463.98395880736905 479.5714680052638,463.98395880736905 479.5714680052638,461.4773286877993 477.49695866556095,461.4773286877993 477.49695866556095,428.058556798024 444.4176210691815,428.058556798024 444.4176210691815,420.8798485920996 437.23916255745576"/>
<path d="M461.4773286877993 477.49695866556095 L456.864378187642 476.8189390390438,456.864378187642 476.8189390390438,299.3237688332695 534.0721208269609,299.3237688332695 534.0721208269609,292.36793766889684 537.2892807576882,292.36793766889684 537.2892807576882,285.880732576207 542.3675114272689,285.880732576207 542.3675114272689,140.30744590215343 687"/>
<path d="M470.28244502485774 400.96653579572245 L428.058556798024 444.4176210691815"/>
<path d="M408.1646209847287 424.4345943658732 L420.8798485920996 437.23916255745576"/>
<path d="M513.2887749920076 359.3513021470715 L470.28244502485774 400.96653579572245"/>
<path d="M554.9280791613905 401.71961349829866 L512.7451407831054 444.4089317110748"/>
<path d="M554.9167929836199 317.4166596797417 L513.2887749920076 359.3513021470715"/>
<path d="M510.75487826596526 275.96462615920876 L470.2915338936819 316.9406426597844"/>
<path d="M598.1095945781848 274.41252702153844 L638.0566712257179 230.48602399419826"/>
<path d="M598.1095945781848 274.41252702153844 L554.9167929836199 317.4166596797417"/>
<path d="M639.9991922121111 316.8050087711771 L597.0997313619051 360.8170070920724"/>
<path d="M682.4209381218102 359.87066607988265 L696.0778124904397 346.17503917165106,696.0778124904397 346.17503917165106,696.6714854167146 337.063997502631,696.6714854167146 337.063997502631,695.2066793708283 329.2569588156847,695.2066793708283 329.2569588156847,690.4253351032247 312.37073943944273,690.4253351032247 312.37073943944273,683.9131106518486 279.8305914952326"/>
<path d="M690.4253351032247 312.37073943944273 L692.7159298022809 305.29660316383644,692.7159298022809 305.29660316383644,695.1224824871052 302.0192169924389,695.1224824871052 302.0192169924389,698.9279219494206 299.58140259396663"/>
<path d="M695.2066793708283 329.2569588156847 L703.9253016375377 338.32764990223245,703.9253016375377 338.32764990223245,696.0778124904397 346.17503917165106"/>
<path d="M724.2808720849586 359.5042148742126 L703.9253016375377 338.32764990223245"/>
<path d="M724.3536829132316 402.29371039941384 L702.935813467853 380.7906452935182"/>
<path d="M724.3536829132316 402.29371039941384 L702.4945538803222 423.43921341310465"/>
<path d="M745.860343615585 423.58633323484133 L766.3069026289272 403.22566902577165"/>
<path d="M745.860343615585 423.58633323484133 L723.6440520011885 445.74769212557504"/>
<path d="M745.4690228677476 443.0298207141023 L744.5387621619392 443.21444460444866"/>
<path d="M748.4079235837035 446.00737409198064 L748.2168575830365 446.9220039409651"/>
<path d="M767.3282517783364 445.8832760753426 L745.860343615585 423.58633323484133"/>
<path d="M767.3282517783364 445.8832760753426 L745.4713200543736 467.55433543796664"/>
<path d="M767.3282517783364 445.8832760753426 L788.3116533183825 425.0722134710784"/>
<path d="M788.4003446976781 466.65413791365376 L809.1767996860347 445.7736603222157"/>
<path d="M788.4003446976781 466.65413791365376 L766.4661076498699 488.512967313525"/>
<path d="M809.0334752161147 488.18691662916694 L794.5918619205432 502.09113807079774"/>
<path d="M830.4104946906241 509.65067986822373 L850.9594283253379 529.729639082583,850.9594283253379 529.729639082583,852.4334231177278 530.0701220916125,852.4334231177278 530.0701220916125,854.0029009716117 529.611383910189,854.0029009716117 529.611383910189,872.9050514285962 511.130817137896,872.9050514285962 511.130817137896,873.5646436232665 509.67375161216216,873.5646436232665 509.67375161216216,872.8663987666733 508.39267055750776"/>
<path d="M830.4104946906241 509.65067986822373 L809.6066732181155 531.1319217011733"/>
<path d="M851.77832541863 487.5896481064341 L868.7470437580455 468.8354164926212"/>
<path d="M851.77832541863 487.5896481064341 L872.8663987666733 508.39267055750776"/>
<path d="M830.326297806901 466.7609071529183 L809.1767996860347 445.7736603222157"/>
<path d="M830.326297806901 466.7609071529183 L809.0334752161147 488.18691662916694"/>
<path d="M851.5440123827885 445.41010556924795 L871.7973080865174 465.46544371243226"/>
<path d="M883.0521242658951 433.10177962769853 L898.5127895242498 473.83843926962373"/>
<path d="M877.6134849902472 419.17783234438883 L873.2280558437329 423.5892296875437"/>
<path d="M865.6239686013004 389.04223953141525 L854.1484227504781 359.8100403284952,854.1484227504781 359.8100403284952,842.0837983466325 327.76828200442503,842.0837983466325 327.76828200442503,830.8335765405064 338.973858487865,830.8335765405064 338.973858487865,808.6468487192085 361.0679997003714,808.6468487192085 361.0679997003714,830.8540514647808 382.56796859820605"/>
<path d="M808.6468487192085 361.0679997003714 L787.3267595219496 339.20177935222546,787.3267595219496 339.20177935222546,809.2609965697578 317.22629282283077,809.2609965697578 317.22629282283077,829.7735747291748 296.6703677505599,829.7735747291748 296.6703677505599,837.4572644820785 315.4837269505697,837.4572644820785 315.4837269505697,840.9306106604328 314.22866403139557,840.9306106604328 314.22866403139557,842.6115520045122 312.9679080844963,842.6115520045122 312.9679080844963,844.4312234452597 311.4272948799554,844.4312234452597 311.4272948799554,848.6301809643589 307.9277807496017,848.6301809643589 307.9277807496017,851.1481971393788 306.52849446139305,851.1481971393788 306.52849446139305,854.0779091088309 306.5083191701568,854.0779091088309 306.5083191701568,858.6499097604398 307.00171490632755,858.6499097604398 307.00171490632755,868.9244265166363 313.9488067737538,868.9244265166363 313.9488067737538,876.5194248902445 317.9504059983848,876.5194248902445 317.9504059983848,881.0004369759322 318.9313046876423,881.0004369759322 318.9313046876423,883.3797230542839 319.0698350289516"/>
<path d="M829.7735747291748 296.6703677505599 L817.7862556491743 266.19898617948803,817.7862556491743 266.19898617948803,805.8968166949733 235.96171788889882,805.8968166949733 235.96171788889882,805.7398089829773 233.64505511552267,805.7398089829773 233.64505511552267,806.5063701722706 231.51016971863032,806.5063701722706 231.51016971863032,808.9289032857968 229.41283832918762"/>
<path d="M806.5063701722706 231.51016971863032 L787.401767659169 211.9187633961976,787.401767659169 211.9187633961976,766.6845401346886 232.55748706467995,766.6845401346886 232.55748706467995,745.860343615585 253.3175621136172,745.860343615585 253.3175621136172,724.3536829132316 274.75011357786576,724.3536829132316 274.75011357786576,745.6055556554694 296.5145585707165,745.6055556554694 296.5145585707165,767.2190854747668 274.84819345902355,767.2190854747668 274.84819345902355,787.890868655126 254.11089052098637,787.890868655126 254.11089052098637,808.6991846232071 275.2635847275933,808.6991846232071 275.2635847275933,788.0614597315187 295.85966062697736,788.0614597315187 295.85966062697736,766.2228056228837 317.64747699680464"/>
<path d="M767.2190854747668 274.84819345902355 L788.0614597315187 295.85966062697736"/>
<path d="M745.6055556554694 296.5145585707165 L766.2228056228837 317.64747699680464"/>
<path d="M745.860343615585 253.3175621136172 L767.2190854747668 274.84819345902355"/>
<path d="M766.6845401346886 232.55748706467995 L787.890868655126 254.11089052098637,787.890868655126 254.11089052098637,805.8968166949733 235.96171788889882"/>
<path d="M817.7862556491743 266.19898617948803 L808.6991846232071 275.2635847275933,808.6991846232071 275.2635847275933,829.7735747291748 296.6703677505599"/>
<path d="M809.2609965697578 317.22629282283077 L788.0614597315187 295.85966062697736"/>
<path d="M787.3267595219496 339.20177935222546 L766.2228056228837 317.64747699680464"/>
<path d="M830.8335765405064 338.973858487865 L809.2609965697578 317.22629282283077"/>
<path d="M842.0837983466325 327.76828200442503 L837.4572644820785 315.4837269505697"/>
<path d="M854.1484227504781 359.8100403284952 L830.8540514647808 382.56796859820605"/>
<path d="M851.8374530048269 402.8793931113379 L873.2280558437329 423.5892296875437"/>
<path d="M851.8374530048269 402.8793931113379 L830.8540514647808 382.56796859820605"/>
<path d="M830.39001976635 424.4548695347889 L809.1767996860347 445.7736603222157"/>
<path d="M830.39001976635 424.4548695347889 L851.5440123827885 445.41010556924795"/>
<path d="M809.5861982938411 403.85170232016816 L795.5859444634798 417.8563507684223"/>
<path d="M809.5861982938411 403.85170232016816 L830.8540514647808 382.56796859820605"/>
<path d="M787.7088915232835 381.9158672294897 L808.6468487192085 361.0679997003714"/>
<path d="M787.7088915232835 381.9158672294897 L766.3069026289272 403.22566902577165"/>
<path d="M766.5684822712412 360.01199299621504 L787.3267595219496 339.20177935222546"/>
<path d="M766.5684822712412 360.01199299621504 L745.2711651848824 381.3417703283745"/>
<path d="M745.5804863579432 338.2641276981425 L724.2808720849586 359.5042148742126"/>
<path d="M745.5804863579432 338.2641276981425 L766.2228056228837 317.64747699680464"/>
<path d="M725.1339273446011 317.0762765483916 L745.6055556554694 296.5145585707165"/>
<path d="M725.1339273446011 317.0762765483916 L703.9253016375377 338.32764990223245"/>
<path d="M703.9798348504829 295.0605393142039 L724.3536829132316 274.75011357786576"/>
<path d="M703.9798348504829 295.0605393142039 L698.9279219494206 299.58140259396663"/>
<path d="M684.1700959209107 274.62886207509007 L683.9131106518486 279.8305914952326"/>
<path d="M704.2823643413454 254.16572336696973 L724.3536829132316 274.75011357786576"/>
<path d="M725.3932098002891 232.69012462290559 L745.860343615585 253.3175621136172"/>
<path d="M725.3932098002891 232.69012462290559 L691.1168881552987 198.13174841132698"/>
<path d="M746.0968539603729 211.6273203277469 L766.6845401346886 232.55748706467995"/>
<path d="M766.6845401346886 190.68007450763886 L787.401767659169 211.9187633961976"/>
<path d="M766.6845401346886 190.68007450763886 L752.2360352792396 175.85473116786343"/>
<path d="M802.826077442227 196.53350578578 L787.401767659169 211.9187633961976"/>
<path d="M814.6791609211314 226.94625915905198 L808.9289032857968 229.41283832918762"/>
<path d="M827.3897941552507 222.1630172155401 L763.7047894478637 60.443375939105934"/>
<path d="M888.4862690459706 317.76003914147367 L883.3797230542839 319.0698350289516"/>
<path d="M914.1075905060209 383.92680442626295 L920.5561928756276 379.05676877936406,920.5561928756276 379.05676877936406,1297.5338674272302 0"/>
<path d="M930.7078600861786 426.9764813062667 L940.5774727301412 423.0439974357713,940.5774727301412 423.0439974357713,943.4594431688462 423.11610912028857,943.4594431688462 423.11610912028857,954.7279425903 433.58069310035813,954.7279425903 433.58069310035813,955.5331564415161 436.80059966726856,955.5331564415161 436.80059966726856,954.7279425903 439.5386963088171"/>
<path d="M933.8900628291206 434.6049387024695 L942.6473377577524 457.72142784117887"/>
<path d="M945.1995120991227 448.881054683297 L954.7279425903 439.5386963088171"/>
<path d="M951.9892966215149 456.97993594941164 L948.8911908846168 456.33362748609966"/>
<path d="M954.6779038729272 459.6833750362129 L974.0122250486183 444.7638470447758"/>
</g>
<text text-anchor="end" x="1325" y="616" fill="rgb(143, 84, 84)" font-family="Roboto, sans-serif" font-size="24">De la Garma</text>
<text text-anchor="end" x="1326" y="655" fill="rgb(143, 84, 84)" font-family="Roboto, sans-serif" font-size="12">data © OpenStreetMap</text>
</svg>